<svg xmlns="http://www.w3.org/2000/svg" xmlns:svg="http://www.w3.org/2000/svg" xmlns:xlink="http://www.w3.org/1999/xlink" version="1.0" height="1069.9999523162842pt" width="1064.9999713897705pt" viewBox="165 147 1072.9999713897705 1075.9999523162842" ><defs><style type="text/css">
            @font-face {
                font-family: 'noto_regular';
                src: url('https://app.creately.com/diagram/assets/fonts/noto/noto-regular.woff') format('woff'),
                     url('https://app.creately.com/diagram/assets/fonts/noto/noto-regular.woff2') format('woff2');
                font-weight: normal;
                font-style: normal;
            }
        p {
            margin: 0;
        }
        </style></defs><defs><style>
            span{ display: inline-block; }
        </style></defs><g id="2c7yz299uk"><g transform="translate(170 150)"><rect x="0" y="0" width="1064.9999713897705" height="1069.9999523162842" fill="rgba(255,255,255,1)" stroke="#ffffff" stroke-width="1.5" stroke-linecap="round" stroke-linejoin="round"/></g></g><g id="2eutv3q76j"><g transform="translate(615 595)"><ellipse cx="54.5" cy="54.5" rx="54.5" ry="54.5" fill="rgba(0,70,138,1)" stroke="#00468a" stroke-width="2" stroke-linecap="round" stroke-linejoin="round"/></g><g transform="translate(627, 624) rotate(0, 42.5, 25.5)" width="85" height="51"><text text-decoration="none" x="23.5" fill="rgb(255, 255, 255)" font-size="10pt" font-family="Lato"  y="12">Library&#160;</text><text text-decoration="none" x="5" fill="rgb(255, 255, 255)" font-size="10pt" font-family="Lato"  y="28">Management&#160;</text><text text-decoration="none" x="17.5" fill="rgb(255, 255, 255)" font-size="10pt" font-family="Lato"  y="47">Systems</text><text text-decoration="none" x="67.5" fill="#4b4b4b" font-size="10pt" font-family="noto_regular"  y="47"></text></g></g><g id="51g4h5e8tk"><g transform="translate(990 470)"><rect x="0" y="0" width="100" height="100" fill="rgba(52,152,219,1)" stroke="#3498db" stroke-width="2" stroke-linecap="round" stroke-linejoin="round"/></g><g transform="translate(994, 510.5) rotate(0, 46, 9.5)" width="92" height="19"><text text-decoration="none" x="2" fill="rgb(255, 255, 255)" font-size="10pt" font-family="Lato"  y="15">FINE&#160;</text><text text-decoration="none" x="32" fill="rgb(255, 255, 255)" font-size="10pt" font-family="Lato"  y="15">SYSTEMS</text><text text-decoration="none" x="90" fill="#4b4b4b" font-size="10pt" font-family="noto_regular"  y="15"></text></g></g><g id="294y3hb90o"><mask id="c682b" x="712" y="533.6983026575185" width="291" height="129.30169734248148" maskUnits="userSpaceOnUse"><rect x="712" y="533.6983026575185" width="291" height="129.30169734248148" fill="white" /><rect x="880.0503661875003" y="534.20862125" width="84" height="25" fill="black" /></mask><g mask="url(#c682b)"><path d="M 725,650 C 762.1,566 841.6,536 990,550" fill="none" stroke="#f6902a" stroke-width="1.5" stroke-linecap="round" stroke-linejoin="round"/><path d="M 990,550 L 981.8828418518461,543.4586996455187 L 980.802732013996,554.9078639267306 Z" fill="rgb(246,144,42)" stroke="#f6902a" stroke-width="1.5" stroke-linecap="round" stroke-linejoin="round"/></g><g transform="translate(883.0503661875003, 537.20862125)" width="78" height="19"><text text-decoration="none" x="5.5" fill="rgb(75, 75, 75)" font-size="10pt" font-family="Lato"  y="15">Display&#160;</text><text text-decoration="none" x="50.5" fill="rgb(75, 75, 75)" font-size="10pt" font-family="Lato"  y="15">info</text><text text-decoration="none" x="72.5" fill="#4b4b4b" font-size="10pt" font-family="noto_regular"  y="15"></text></g></g><g id="2862pk1dsc"><g transform="translate(990 755)"><rect x="0" y="0" width="100" height="100" fill="rgba(52,152,219,1)" stroke="#3498db" stroke-width="2" stroke-linecap="round" stroke-linejoin="round"/></g><g transform="translate(1013.5, 787.5) rotate(0, 26.5, 17.5)" width="53" height="35"><text text-decoration="none" x="1.5" fill="rgb(255, 255, 255)" font-size="10pt" font-family="Lato"  y="12">SYSTEM&#160;</text><text text-decoration="none" x="0.5" fill="rgb(255, 255, 255)" font-size="10pt" font-family="Lato"  y="31">DISPLAY</text><text text-decoration="none" x="52.5" fill="#4b4b4b" font-size="10pt" font-family="noto_regular"  y="31"></text></g></g><g id="ysyhmeiei2"><mask id="8895b" x="712" y="637" width="291" height="155.12712167810173" maskUnits="userSpaceOnUse"><rect x="712" y="637" width="291" height="155.12712167810173" fill="white" /><rect x="851.8428305000003" y="764.4004625000001" width="65" height="25" fill="black" /></mask><g mask="url(#8895b)"><path d="M 725,650 C 762.1,755 841.6,792.5 990,775" fill="none" stroke="#f6902a" stroke-width="1.5" stroke-linecap="round" stroke-linejoin="round"/><path d="M 990,775 L 980.6907861783975,770.3079423753151 L 982.037586154229,781.7288061703658 Z" fill="rgb(246,144,42)" stroke="#f6902a" stroke-width="1.5" stroke-linecap="round" stroke-linejoin="round"/></g><g transform="translate(854.8428305000003, 767.4004625000001)" width="59" height="19"><text text-decoration="none" x="3.5" fill="rgb(75, 75, 75)" font-size="10pt" font-family="Lato"  y="15">Executes</text><text text-decoration="none" x="55.5" fill="#4b4b4b" font-size="10pt" font-family="noto_regular"  y="15"></text></g></g><g id="26txw563yo"><g transform="translate(990 955)"><rect x="0" y="0" width="100" height="100" fill="rgba(52,152,219,1)" stroke="#3498db" stroke-width="2" stroke-linecap="round" stroke-linejoin="round"/></g><g transform="translate(1010.5, 995.5) rotate(0, 29.5, 9.5)" width="59" height="19"><text text-decoration="none" x="1.5" fill="rgb(255, 255, 255)" font-size="10pt" font-family="Lato"  y="15">REPORTS</text><text text-decoration="none" x="57.5" fill="#4b4b4b" font-size="10pt" font-family="noto_regular"  y="15"></text></g></g><g id="2n9xwc7amr"><mask id="bc658" x="692" y="677" width="311" height="351.4003466288166" maskUnits="userSpaceOnUse"><rect x="692" y="677" width="311" height="351.4003466288166" fill="white" /><rect x="749.092" y="915.3880000000001" width="55" height="25" fill="black" /></mask><g mask="url(#bc658)"><path d="M 705,690 C 744.9,954.6 830.4,1049.1 990,1005" fill="none" stroke="#f6902a" stroke-width="1.5" stroke-linecap="round" stroke-linejoin="round"/><path d="M 990,1005 L 980.0870026914421,1001.773647401445 L 983.1498595549994,1012.8582722409856 Z" fill="rgb(246,144,42)" stroke="#f6902a" stroke-width="1.5" stroke-linecap="round" stroke-linejoin="round"/></g><g transform="translate(752.092, 918.3880000000001)" width="49" height="19"><text text-decoration="none" x="3.5" fill="rgb(75, 75, 75)" font-size="10pt" font-family="Lato"  y="15">Display</text><text text-decoration="none" x="45.5" fill="#4b4b4b" font-size="10pt" font-family="noto_regular"  y="15"></text></g></g><g id="1po2szpccb"><g transform="translate(990 285)"><rect x="0" y="0" width="100" height="100" fill="rgba(52,152,219,1)" stroke="#3498db" stroke-width="2" stroke-linecap="round" stroke-linejoin="round"/></g><g transform="translate(1017, 325.5) rotate(0, 23, 9.5)" width="46" height="19"><text text-decoration="none" x="2" fill="rgb(255, 255, 255)" font-size="10pt" font-family="Lato"  y="15">BOOKS</text><text text-decoration="none" x="44" fill="#4b4b4b" font-size="10pt" font-family="noto_regular"  y="15"></text></g></g><g id="69mqnlvago"><mask id="96565" x="712" y="311.5996533711835" width="291" height="351.4003466288165" maskUnits="userSpaceOnUse"><rect x="712" y="311.5996533711835" width="291" height="351.4003466288165" fill="white" /><rect x="848.1922666875003" y="313.12387143749993" width="118" height="25" fill="black" /></mask><g mask="url(#96565)"><path d="M 725,650 C 762.1,385.4 841.6,290.9 990,335" fill="none" stroke="#f6902a" stroke-width="1.5" stroke-linecap="round" stroke-linejoin="round"/><path d="M 990,335 L 983.3025444596536,327.0111980863985 L 980.026677621863,338.0347499849956 Z" fill="rgb(246,144,42)" stroke="#f6902a" stroke-width="1.5" stroke-linecap="round" stroke-linejoin="round"/></g><g transform="translate(851.1922666875003, 316.12387143749993)" width="112" height="19"><text text-decoration="none" x="6.5" fill="rgb(75, 75, 75)" font-size="10pt" font-family="Lato"  y="15">Student&#160;</text><text text-decoration="none" x="53.5" fill="rgb(75, 75, 75)" font-size="10pt" font-family="Lato"  y="15">Receives</text><text text-decoration="none" x="105.5" fill="#4b4b4b" font-size="10pt" font-family="noto_regular"  y="15"></text></g></g><g id="27etyk9lg9"><g transform="translate(325 430)"><rect x="0" y="0" width="100" height="100" fill="rgba(26,188,156,1)" stroke="#1abc9c" stroke-width="2" stroke-linecap="round" stroke-linejoin="round"/></g><g transform="translate(344, 470.5) rotate(0, 31, 9.5)" width="62" height="19"><text text-decoration="none" x="2.5" fill="rgb(242, 252, 249)" font-size="10pt" font-family="Lato"  y="15">STUDENT</text><text text-decoration="none" x="59.5" fill="#4b4b4b" font-size="10pt" font-family="noto_regular"  y="15"></text></g></g><g id="5nmb3m4bqj"><mask id="fef1d" x="412" y="467" width="271" height="141" maskUnits="userSpaceOnUse"><rect x="412" y="467" width="271" height="141" fill="white" /><rect x="446.1667923816707" y="467.5" width="95" height="25" fill="black" /></mask><g mask="url(#fef1d)"><path d="M 425,480 L 670,480 L 670,595" fill="none" stroke="#f6902a" stroke-width="1.5" stroke-linecap="round" stroke-linejoin="round"/><path d="M 670,595 L 675.75,586.304347826087 L 664.25,586.304347826087 Z" fill="rgb(246,144,42)" stroke="#f6902a" stroke-width="1.5" stroke-linecap="round" stroke-linejoin="round"/></g><g transform="translate(449.1667923816707, 470.5)" width="89" height="19"><text text-decoration="none" x="5.5" fill="rgb(75, 75, 75)" font-size="10pt" font-family="Lato"  y="15">Reserve&#160;</text><text text-decoration="none" x="54.5" fill="rgb(75, 75, 75)" font-size="10pt" font-family="Lato"  y="15">Book</text><text text-decoration="none" x="83.5" fill="#4b4b4b" font-size="10pt" font-family="noto_regular"  y="15"></text></g></g><g id="10voeqqs6b"><g transform="translate(320 790)"><rect x="0" y="0" width="100" height="100" fill="rgba(26,188,156,1)" stroke="#1abc9c" stroke-width="2" stroke-linecap="round" stroke-linejoin="round"/></g><g transform="translate(322.5, 830.5) rotate(0, 47.5, 9.5)" width="95" height="19"><text text-decoration="none" x="1.5" fill="rgb(242, 252, 249)" font-size="10pt" font-family="Lato"  y="15">LIBRARY&#160;</text><text text-decoration="none" x="55.5" fill="rgb(242, 252, 249)" font-size="10pt" font-family="Lato"  y="15">STAFF</text><text text-decoration="none" x="93.5" fill="#4b4b4b" font-size="10pt" font-family="noto_regular"  y="15"></text></g></g><g id="2lu4j8l8vj"><mask id="885cd" x="317" y="602" width="321" height="196" maskUnits="userSpaceOnUse"><rect x="317" y="602" width="321" height="196" fill="white" /><rect x="321.5" y="602.5" width="142" height="25" fill="black" /></mask><g mask="url(#885cd)"><path d="M 330,785 L 330,615 L 625,615" fill="none" stroke="#f6902a" stroke-width="1.5" stroke-linecap="round" stroke-linejoin="round"/><path d="M 625,615 L 616.304347826087,609.25 L 616.304347826087,620.75 Z" fill="rgb(246,144,42)" stroke="#f6902a" stroke-width="1.5" stroke-linecap="round" stroke-linejoin="round"/></g><g transform="translate(324.5, 605.5)" width="136" height="19"><text text-decoration="none" x="9.5" fill="rgb(75, 75, 75)" font-size="10pt" font-family="Lato"  y="15">maintain&#160;</text><text text-decoration="none" x="61.5" fill="rgb(75, 75, 75)" font-size="10pt" font-family="Lato"  y="15">Reader&#160;</text><text text-decoration="none" x="104.5" fill="rgb(75, 75, 75)" font-size="10pt" font-family="Lato"  y="15">info</text><text text-decoration="none" x="126.5" fill="#4b4b4b" font-size="10pt" font-family="noto_regular"  y="15"></text></g></g><g id="2gkcyx6gof"><mask id="1fc75" x="362" y="517" width="296" height="96" maskUnits="userSpaceOnUse"><rect x="362" y="517" width="296" height="96" fill="white" /><rect x="500.29095792300814" y="550" width="87" height="25" fill="black" /></mask><g mask="url(#1fc75)"><path d="M 375,530 L 375,562.5 L 510,562.5 L 645,562.5 L 645,600" fill="none" stroke="#f6902a" stroke-width="1.5" stroke-linecap="round" stroke-linejoin="round"/><path d="M 645,600 L 650.75,591.304347826087 L 639.25,591.304347826087 Z" fill="rgb(246,144,42)" stroke="#f6902a" stroke-width="1.5" stroke-linecap="round" stroke-linejoin="round"/></g><g transform="translate(503.29095792300814, 553)" width="81" height="19"><text text-decoration="none" x="4.5" fill="rgb(75, 75, 75)" font-size="10pt" font-family="Lato"  y="15">Search&#160;</text><text text-decoration="none" x="47.5" fill="rgb(75, 75, 75)" font-size="10pt" font-family="Lato"  y="15">Book</text><text text-decoration="none" x="76.5" fill="#4b4b4b" font-size="10pt" font-family="noto_regular"  y="15"></text></g></g><g id="2i9ni53kkq"><mask id="4c9d4" x="407" y="682" width="246" height="146" maskUnits="userSpaceOnUse"><rect x="407" y="682" width="246" height="146" fill="white" /><rect x="551.5" y="802.5" width="77" height="25" fill="black" /></mask><g mask="url(#4c9d4)"><path d="M 420,815 L 640,815 L 640,695" fill="none" stroke="#f6902a" stroke-width="1.5" stroke-linecap="round" stroke-linejoin="round"/><path d="M 640,695 L 634.25,703.695652173913 L 645.75,703.695652173913 Z" fill="rgb(246,144,42)" stroke="#f6902a" stroke-width="1.5" stroke-linecap="round" stroke-linejoin="round"/></g><g transform="translate(554.5, 805.5)" width="71" height="19"><text text-decoration="none" x="3.5" fill="rgb(75, 75, 75)" font-size="10pt" font-family="Lato"  y="15">Issue&#160;</text><text text-decoration="none" x="38.5" fill="rgb(75, 75, 75)" font-size="10pt" font-family="Lato"  y="15">Book</text><text text-decoration="none" x="67.5" fill="#4b4b4b" font-size="10pt" font-family="noto_regular"  y="15"></text></g></g><g id="296g3rxzz6"><mask id="88c01" x="407" y="692" width="276" height="231" maskUnits="userSpaceOnUse"><rect x="407" y="692" width="276" height="231" fill="white" /><rect x="595" y="897.5" width="85" height="25" fill="black" /></mask><g mask="url(#88c01)"><path d="M 420,890 L 420,910 L 545,910 L 670,910 L 670,705" fill="none" stroke="#f6902a" stroke-width="1.5" stroke-linecap="round" stroke-linejoin="round"/><path d="M 670,705 L 664.25,713.695652173913 L 675.75,713.695652173913 Z" fill="rgb(246,144,42)" stroke="#f6902a" stroke-width="1.5" stroke-linecap="round" stroke-linejoin="round"/></g><g transform="translate(598, 900.5)" width="79" height="19"><text text-decoration="none" x="5" fill="rgb(75, 75, 75)" font-size="10pt" font-family="Lato"  y="15">Return&#160;</text><text text-decoration="none" x="45" fill="rgb(75, 75, 75)" font-size="10pt" font-family="Lato"  y="15">Book</text><text text-decoration="none" x="74" fill="#4b4b4b" font-size="10pt" font-family="noto_regular"  y="15"></text></g></g><g id="6r8p1s79pp"><mask id="236aa" x="387" y="637" width="241" height="166" maskUnits="userSpaceOnUse"><rect x="387" y="637" width="241" height="166" fill="white" /><rect x="381" y="637.5" width="113" height="25" fill="black" /></mask><g mask="url(#236aa)"><path d="M 400,790 L 400,650 L 615,650" fill="none" stroke="#f6902a" stroke-width="1.5" stroke-linecap="round" stroke-linejoin="round"/><path d="M 615,650 L 606.304347826087,644.25 L 606.304347826087,655.75 Z" fill="rgb(246,144,42)" stroke="#f6902a" stroke-width="1.5" stroke-linecap="round" stroke-linejoin="round"/></g><g transform="translate(384, 640.5)" width="107" height="19"><text text-decoration="none" x="7" fill="rgb(75, 75, 75)" font-size="10pt" font-family="Lato"  y="15">Add&#160;</text><text text-decoration="none" x="32" fill="rgb(75, 75, 75)" font-size="10pt" font-family="Lato"  y="15">/&#160;</text><text text-decoration="none" x="40" fill="rgb(75, 75, 75)" font-size="10pt" font-family="Lato"  y="15">delete&#160;</text><text text-decoration="none" x="78" fill="rgb(75, 75, 75)" font-size="10pt" font-family="Lato"  y="15">info</text><text text-decoration="none" x="100" fill="#4b4b4b" font-size="10pt" font-family="noto_regular"  y="15"></text></g></g><g id="dcvsqzjn8j"><mask id="d6e84" x="407" y="657" width="226" height="171" maskUnits="userSpaceOnUse"><rect x="407" y="657" width="226" height="171" fill="white" /><rect x="467" y="727.5" width="101" height="25" fill="black" /></mask><g mask="url(#d6e84)"><path d="M 420,815 L 517.5,815 L 517.5,742.5 L 517.5,670 L 620,670" fill="none" stroke="#f6902a" stroke-width="1.5" stroke-linecap="round" stroke-linejoin="round"/><path d="M 620,670 L 611.304347826087,664.25 L 611.304347826087,675.75 Z" fill="rgb(246,144,42)" stroke="#f6902a" stroke-width="1.5" stroke-linecap="round" stroke-linejoin="round"/></g><g transform="translate(470, 730.5)" width="95" height="19"><text text-decoration="none" x="6.5" fill="rgb(75, 75, 75)" font-size="10pt" font-family="Lato"  y="15">Authentication</text><text text-decoration="none" x="88.5" fill="#4b4b4b" font-size="10pt" font-family="noto_regular"  y="15"></text></g></g></svg>